<svg viewBox="0 0 1000 1500" xmlns="http://www.w3.org/2000/svg" role="img" aria-label="Used versus new price, Chanel Flap and Hermes Birkin">
  <defs><linearGradient id="bg" x1="0" y1="0" x2="0" y2="1"><stop offset="0" stop-color="#311525"/><stop offset="1" stop-color="#180a11"/></linearGradient></defs>
  <rect x="0" y="0" width="1000" height="1500" fill="url(#bg)"/>
  <text x="500" y="116" text-anchor="middle" fill="#c9a24c" font-family="Georgia, serif" font-size="23" letter-spacing="5">THE USED-IS-CHEAPER RULE</text>
  <text x="500" y="216" text-anchor="middle" fill="#f3e9ec" font-family="Georgia, serif" font-size="54" font-weight="600">Used costs less than new.</text>
  <text x="500" y="280" text-anchor="middle" fill="#c9a24c" font-family="Georgia, serif" font-size="54" font-weight="600" font-style="italic">Tell that to a Birkin.</text>

  <rect x="285" y="338" width="28" height="28" fill="#8a6f63"/><text x="323" y="361" fill="#f3e9ec" font-family="Georgia, serif" font-size="27">New</text>
  <rect x="450" y="338" width="28" height="28" fill="#c9a24c"/><text x="488" y="361" fill="#f3e9ec" font-family="Georgia, serif" font-size="27">Used</text>

  <line x1="130" y1="1080" x2="870" y2="1080" stroke="#5a3a46" stroke-width="2"/>
  <rect x="190" y="742" width="95" height="338" fill="#8a6f63"/>
  <rect x="295" y="907" width="95" height="173" fill="#c9a24c"/>
  <rect x="610" y="650" width="95" height="430" fill="#8a6f63"/>
  <rect x="715" y="560" width="95" height="520" fill="#c9a24c"/>
  <g font-family="Georgia, serif" font-size="29" fill="#f3e9ec" text-anchor="middle">
    <text x="237" y="722">$11,700</text><text x="342" y="887">$6,000</text>
    <text x="657" y="630">$14,900</text><text x="762" y="540">$18,000</text>
  </g>
  <g text-anchor="middle" font-family="Georgia, serif">
    <text x="290" y="1132" fill="#f3e9ec" font-size="30">Chanel Flap</text>
    <text x="290" y="1166" fill="#9fd6a0" font-size="24" font-style="italic">used: about half of new</text>
    <text x="710" y="1132" fill="#f3e9ec" font-size="30">Hermès Birkin 30</text>
    <text x="710" y="1166" fill="#e6a06a" font-size="24" font-style="italic">used: about 20% over new</text>
  </g>
  <text x="500" y="1290" text-anchor="middle" fill="#cdb8c0" font-family="Georgia, serif" font-size="30" font-style="italic">Chanel hikes the price. Hermès locks the door.</text>
  <text x="500" y="1418" text-anchor="middle" fill="#9a838c" font-family="Georgia, serif" font-size="21">New retail per 2026 price trackers; used per our June 2026 listings. Estimate, not an appraisal.</text>
</svg>
