<svg viewBox="0 0 1000 1500" xmlns="http://www.w3.org/2000/svg" role="img" aria-label="Birkin vs Kelly median asking price by size, June 2026">
  <defs><linearGradient id="bg" x1="0" y1="0" x2="0" y2="1"><stop offset="0" stop-color="#311525"/><stop offset="1" stop-color="#180a11"/></linearGradient></defs>
  <rect x="0" y="0" width="1000" height="1500" fill="url(#bg)"/>
  <text x="500" y="120" text-anchor="middle" fill="#c9a24c" font-family="Georgia, serif" font-size="23" letter-spacing="7">PRICED SIZE BY SIZE</text>
  <text x="500" y="232" text-anchor="middle" fill="#f3e9ec" font-family="Georgia, serif" font-size="66" font-weight="600">Birkin vs Kelly</text>
  <text x="500" y="292" text-anchor="middle" fill="#b9a6ad" font-family="Georgia, serif" font-size="27">Median asking price by size, June 2026</text>

  <rect x="372" y="338" width="30" height="30" fill="#c9a24c"/>
  <text x="414" y="362" fill="#f3e9ec" font-family="Georgia, serif" font-size="29">Birkin</text>
  <rect x="556" y="338" width="30" height="30" fill="#8a6f63"/>
  <text x="598" y="362" fill="#f3e9ec" font-family="Georgia, serif" font-size="29">Kelly</text>

  <line x1="110" y1="1090" x2="890" y2="1090" stroke="#5a3a46" stroke-width="2"/>
  <rect x="148" y="530" width="85" height="560" fill="#c9a24c"/>
  <rect x="240" y="546" width="85" height="544" fill="#8a6f63"/>
  <rect x="408" y="701" width="85" height="389" fill="#c9a24c"/>
  <rect x="500" y="712" width="85" height="378" fill="#8a6f63"/>
  <rect x="668" y="787" width="85" height="303" fill="#c9a24c"/>
  <rect x="760" y="822" width="85" height="268" fill="#8a6f63"/>
  <g font-family="Georgia, serif" font-size="26" fill="#f3e9ec" text-anchor="middle">
    <text x="190" y="512">$25,900</text><text x="282" y="528">$25,159</text>
    <text x="450" y="683">$18,000</text><text x="542" y="694">$17,500</text>
    <text x="710" y="769">$14,000</text><text x="802" y="804">$12,410</text>
  </g>
  <g font-family="Georgia, serif" font-size="29" fill="#b9a6ad" text-anchor="middle">
    <text x="236" y="1140">25 cm</text><text x="496" y="1140">30 / 28</text><text x="756" y="1140">35 / 32</text>
  </g>
  <text x="500" y="1360" text-anchor="middle" fill="#cdb8c0" font-family="Georgia, serif" font-size="31" font-style="italic">They cost about the same. The smaller costs more.</text>
  <text x="500" y="1420" text-anchor="middle" fill="#9a838c" font-family="Georgia, serif" font-size="22">Asking medians from our tracking, June 2026. An estimate of the market, not an appraisal. luxurycatalog.com</text>
</svg>
