<svg xmlns="http://www.w3.org/2000/svg" width="512" height="512" viewBox="0 0 512 512">
  <rect width="512" height="512" rx="96" fill="#0e0d0c"/>
  <path d="M204.25 154.33L204.25 160.43Q193.88 160.74 188.55 162.72Q183.21 164.70 181.38 170.04Q179.55 175.38 179.55 186.66L179.55 341.60Q179.55 351.06 180.92 355.63Q182.30 360.21 186.41 361.73Q190.53 363.26 198.76 363.26L213.71 363.26Q224.08 363.26 233.23 358.38Q242.38 353.50 249.70 344.50Q257.02 335.50 261.90 323Q266.78 310.50 269.22 295.25L276.24 295.25Q275.32 305.62 275.32 322.08Q275.32 329.10 275.63 342.52Q275.93 355.94 277.46 370.27Q261.90 369.66 242.38 369.51Q222.86 369.36 207.61 369.36Q199.99 369.36 188.09 369.36Q176.19 369.36 162.47 369.51Q148.75 369.66 134.72 369.82Q120.69 369.97 108.18 370.27L108.18 364.17Q117.94 363.56 122.82 361.73Q127.70 359.90 129.38 354.41Q131.06 348.92 131.06 337.94L131.06 186.66Q131.06 175.38 129.38 170.04Q127.70 164.70 122.67 162.72Q117.64 160.74 108.18 160.43L108.18 154.33Q115.81 154.64 128.77 154.94Q141.73 155.25 156.37 155.25Q169.79 155.25 182.75 154.94Q195.72 154.64 204.25 154.33" fill="#f3ede0"/>
  <path d="M320.25 150.06Q340.38 150.06 353.34 156.01Q366.30 161.96 376.37 169.89Q382.47 174.46 385.67 170.96Q388.88 167.45 390.09 154.33L397.11 154.33Q396.50 166.23 396.19 183.16Q395.89 200.08 395.89 228.14L388.88 228.14Q387.35 214.11 384.91 204.20Q382.47 194.29 378.20 186.66Q373.93 179.04 366 172.94Q358.38 165.31 348.31 161.65Q338.24 157.99 327.26 157.99Q310.79 157.99 299.20 166.69Q287.61 175.38 280.45 190.32Q273.28 205.27 269.92 224.03Q266.57 242.78 266.57 262.91Q266.57 283.35 270.08 302.11Q273.58 320.87 281.06 335.50Q288.53 350.14 300.42 358.69Q312.32 367.22 328.48 367.22Q338.55 367.22 348.77 363.41Q358.98 359.60 366.30 352.28Q378.20 343.13 382.47 329.56Q386.74 315.98 388.88 293.41L395.89 293.41Q395.89 322.39 396.19 340.23Q396.50 358.07 397.11 370.27L390.09 370.27Q388.88 357.16 385.98 353.80Q383.08 350.45 376.37 354.72Q365.08 362.65 352.43 368.60Q339.77 374.54 319.94 374.54Q287.61 374.54 263.37 361.43Q239.12 348.31 225.70 323.61Q212.28 298.90 212.28 264.13Q212.28 229.97 226.16 204.35Q240.03 178.73 264.28 164.40Q288.53 150.06 320.25 150.06" fill="#c9a24c"/>
</svg>