<svg xmlns="http://www.w3.org/2000/svg" width="512" height="512" viewBox="0 0 512 512">
  <rect width="512" height="512" rx="96" fill="#0e0d0c"/>
  <path d="M217.75 154.33L217.75 160.43Q207.38 160.74 202.05 162.72Q196.71 164.70 194.88 170.04Q193.05 175.38 193.05 186.66L193.05 341.60Q193.05 351.06 194.42 355.63Q195.80 360.21 199.91 361.73Q204.03 363.26 212.26 363.26L227.21 363.26Q237.58 363.26 246.73 358.38Q255.88 353.50 263.20 344.50Q270.52 335.50 275.40 323Q280.28 310.50 282.72 295.25L289.74 295.25Q288.82 305.62 288.82 322.08Q288.82 329.10 289.13 342.52Q289.43 355.94 290.96 370.27Q275.40 369.66 255.88 369.51Q236.36 369.36 221.11 369.36Q213.49 369.36 201.59 369.36Q189.69 369.36 175.97 369.51Q162.25 369.66 148.22 369.82Q134.19 369.97 121.68 370.27L121.68 364.17Q131.44 363.56 136.32 361.73Q141.20 359.90 142.88 354.41Q144.56 348.92 144.56 337.94L144.56 186.66Q144.56 175.38 142.88 170.04Q141.20 164.70 136.17 162.72Q131.13 160.74 121.68 160.43L121.68 154.33Q129.31 154.64 142.27 154.94Q155.23 155.25 169.87 155.25Q183.29 155.25 196.25 154.94Q209.22 154.64 217.75 154.33" fill="#f3ede0"/>
  <path d="M306.75 150.06Q326.88 150.06 339.84 156.01Q352.80 161.96 362.87 169.89Q368.97 174.46 372.17 170.96Q375.38 167.45 376.59 154.33L383.61 154.33Q383 166.23 382.69 183.16Q382.39 200.08 382.39 228.14L375.38 228.14Q373.85 214.11 371.41 204.20Q368.97 194.29 364.70 186.66Q360.43 179.04 352.50 172.94Q344.88 165.31 334.81 161.65Q324.74 157.99 313.76 157.99Q297.29 157.99 285.70 166.69Q274.11 175.38 266.95 190.32Q259.78 205.27 256.42 224.03Q253.07 242.78 253.07 262.91Q253.07 283.35 256.58 302.11Q260.08 320.87 267.56 335.50Q275.03 350.14 286.92 358.69Q298.82 367.22 314.98 367.22Q325.05 367.22 335.27 363.41Q345.48 359.60 352.80 352.28Q364.70 343.13 368.97 329.56Q373.24 315.98 375.38 293.41L382.39 293.41Q382.39 322.39 382.69 340.23Q383 358.07 383.61 370.27L376.59 370.27Q375.38 357.16 372.48 353.80Q369.58 350.45 362.87 354.72Q351.58 362.65 338.93 368.60Q326.27 374.54 306.44 374.54Q274.11 374.54 249.87 361.43Q225.62 348.31 212.20 323.61Q198.78 298.90 198.78 264.13Q198.78 229.97 212.66 204.35Q226.53 178.73 250.78 164.40Q275.03 150.06 306.75 150.06" fill="#c9a24c"/>
</svg>